<svg width="17" height="19" viewBox="0 0 17 19" fill="none" xmlns="http://www.w3.org/2000/svg">
<path d="M16.6667 15.381V16.2857H0.0102539V15.381L1.86097 13.5714V8.14286C1.86097 5.3381 3.73944 2.8681 6.48775 2.0719C6.48775 1.98143 6.48775 1.9 6.48775 1.80952C6.48775 1.32961 6.68273 0.869349 7.02981 0.529997C7.37688 0.190646 7.84762 0 8.33846 0C8.8293 0 9.30003 0.190646 9.64711 0.529997C9.99419 0.869349 10.1892 1.32961 10.1892 1.80952C10.1892 1.9 10.1892 1.98143 10.1892 2.0719C12.9375 2.8681 14.816 5.3381 14.816 8.14286V13.5714L16.6667 15.381ZM10.1892 17.1905C10.1892 17.6704 9.99419 18.1307 9.64711 18.47C9.30003 18.8094 8.8293 19 8.33846 19C7.84762 19 7.37688 18.8094 7.02981 18.47C6.68273 18.1307 6.48775 17.6704 6.48775 17.1905" fill="black"/>
</svg>
