<svg width="61" height="61" viewBox="0 0 61 61" fill="none" xmlns="http://www.w3.org/2000/svg">
<g filter="url(#filter0_d_527_5)">
<path d="M12 8H43C48.5228 8 53 12.4772 53 18V49H22C16.4772 49 12 44.5228 12 39V8Z" fill="#546BF1"/>
</g>
<path d="M24.6667 20.6666H39.3333V31.6666H25.7392L24.6667 32.7391V20.6666ZM24.6667 18.8333C23.6583 18.8333 22.8425 19.6583 22.8425 20.6666L22.8333 37.1666L26.5 33.5H39.3333C40.3417 33.5 41.1667 32.675 41.1667 31.6666V20.6666C41.1667 19.6583 40.3417 18.8333 39.3333 18.8333H24.6667ZM26.5 28H37.5V29.8333H26.5V28ZM26.5 25.25H37.5V27.0833H26.5V25.25ZM26.5 22.5H37.5V24.3333H26.5V22.5Z" fill="white"/>
<defs>
<filter id="filter0_d_527_5" x="0" y="0" width="61" height="61" filterUnits="userSpaceOnUse" color-interpolation-filters="sRGB">
<feFlood flood-opacity="0" result="BackgroundImageFix"/>
<feColorMatrix in="SourceAlpha" type="matrix" values="0 0 0 0 0 0 0 0 0 0 0 0 0 0 0 0 0 0 127 0" result="hardAlpha"/>
<feOffset dx="-2" dy="2"/>
<feGaussianBlur stdDeviation="5"/>
<feComposite in2="hardAlpha" operator="out"/>
<feColorMatrix type="matrix" values="0 0 0 0 0 0 0 0 0 0 0 0 0 0 0 0 0 0 0.2 0"/>
<feBlend mode="normal" in2="BackgroundImageFix" result="effect1_dropShadow_527_5"/>
<feBlend mode="normal" in="SourceGraphic" in2="effect1_dropShadow_527_5" result="shape"/>
</filter>
</defs>
</svg>
