<svg width="61" height="61" viewBox="0 0 61 61" fill="none" xmlns="http://www.w3.org/2000/svg">
<g filter="url(#filter0_d_410_5)">
<path d="M12 8H43C48.5228 8 53 12.4772 53 18V49H22C16.4772 49 12 44.5228 12 39V8Z" fill="#FFCC00"/>
</g>
<path d="M26.6667 21.6666H41.3333V32.6666H27.7392L26.6667 33.7391V21.6666ZM26.6667 19.8333C25.6583 19.8333 24.8425 20.6583 24.8425 21.6666L24.8333 38.1666L28.5 34.5H41.3333C42.3417 34.5 43.1667 33.675 43.1667 32.6666V21.6666C43.1667 20.6583 42.3417 19.8333 41.3333 19.8333H26.6667ZM28.5 29H39.5V30.8333H28.5V29ZM28.5 26.25H39.5V28.0833H28.5V26.25ZM28.5 23.5H39.5V25.3333H28.5V23.5Z" fill="#0B0B0B"/>
<defs>
<filter id="filter0_d_410_5" x="0" y="0" width="61" height="61" filterUnits="userSpaceOnUse" color-interpolation-filters="sRGB">
<feFlood flood-opacity="0" result="BackgroundImageFix"/>
<feColorMatrix in="SourceAlpha" type="matrix" values="0 0 0 0 0 0 0 0 0 0 0 0 0 0 0 0 0 0 127 0" result="hardAlpha"/>
<feOffset dx="-2" dy="2"/>
<feGaussianBlur stdDeviation="5"/>
<feComposite in2="hardAlpha" operator="out"/>
<feColorMatrix type="matrix" values="0 0 0 0 0 0 0 0 0 0 0 0 0 0 0 0 0 0 0.2 0"/>
<feBlend mode="normal" in2="BackgroundImageFix" result="effect1_dropShadow_410_5"/>
<feBlend mode="normal" in="SourceGraphic" in2="effect1_dropShadow_410_5" result="shape"/>
</filter>
</defs>
</svg>
