<svg width="19" height="19" viewBox="0 0 19 19" fill="none" xmlns="http://www.w3.org/2000/svg">
<path d="M13.3145 11.2637H16.2676C16.4316 10.498 16.5137 9.91016 16.5137 9.5C16.5137 9.08984 16.4316 8.50195 16.2676 7.73633H13.3145C13.3965 8.31055 13.4375 8.89844 13.4375 9.5C13.4375 10.1016 13.3965 10.6895 13.3145 11.2637ZM11.7559 16.1035C12.4395 15.8848 13.1504 15.4746 13.8887 14.873C14.627 14.2441 15.1875 13.6152 15.5703 12.9863H12.9863C12.7129 14.0801 12.3027 15.1191 11.7559 16.1035ZM11.5508 11.2637C11.6328 10.6895 11.6738 10.1016 11.6738 9.5C11.6738 8.89844 11.6328 8.31055 11.5508 7.73633H7.44922C7.36719 8.31055 7.32617 8.89844 7.32617 9.5C7.32617 10.1016 7.36719 10.6895 7.44922 11.2637H11.5508ZM9.5 16.4727C10.2656 15.3516 10.8262 14.1895 11.1816 12.9863H7.81836C8.17383 14.1895 8.73438 15.3516 9.5 16.4727ZM6.01367 6.01367C6.3418 4.83789 6.75195 3.79883 7.24414 2.89648C6.56055 3.11523 5.83594 3.53906 5.07031 4.16797C4.33203 4.76953 3.78516 5.38477 3.42969 6.01367H6.01367ZM3.42969 12.9863C3.78516 13.6152 4.33203 14.2441 5.07031 14.873C5.83594 15.4746 6.56055 15.8848 7.24414 16.1035C6.69727 15.1191 6.28711 14.0801 6.01367 12.9863H3.42969ZM2.73242 11.2637H5.68555C5.60352 10.6895 5.5625 10.1016 5.5625 9.5C5.5625 8.89844 5.60352 8.31055 5.68555 7.73633H2.73242C2.56836 8.50195 2.48633 9.08984 2.48633 9.5C2.48633 9.91016 2.56836 10.498 2.73242 11.2637ZM9.5 2.52734C8.73438 3.64844 8.17383 4.81055 7.81836 6.01367H11.1816C10.8262 4.81055 10.2656 3.64844 9.5 2.52734ZM15.5703 6.01367C15.1875 5.38477 14.627 4.76953 13.8887 4.16797C13.1504 3.53906 12.4395 3.11523 11.7559 2.89648C12.248 3.79883 12.6582 4.83789 12.9863 6.01367H15.5703ZM3.30664 3.34766C5.0293 1.625 7.09375 0.763672 9.5 0.763672C11.9062 0.763672 13.957 1.625 15.6523 3.34766C17.375 5.04297 18.2363 7.09375 18.2363 9.5C18.2363 11.9062 17.375 13.9707 15.6523 15.6934C13.957 17.3887 11.9062 18.2363 9.5 18.2363C7.09375 18.2363 5.0293 17.3887 3.30664 15.6934C1.61133 13.9707 0.763672 11.9062 0.763672 9.5C0.763672 7.09375 1.61133 5.04297 3.30664 3.34766Z" fill="black"/>
</svg>
