<svg width="61" height="61" viewBox="0 0 61 61" fill="none" xmlns="http://www.w3.org/2000/svg">
<g filter="url(#filter0_d_1_151)">
<path d="M12 8H43C48.5228 8 53 12.4772 53 18V49H22C16.4772 49 12 44.5228 12 39V8Z" fill="#0099FF"/>
</g>
<path d="M25.6667 21.6667H40.3333V32.6667H26.7392L25.6667 33.7392V21.6667ZM25.6667 19.8333C24.6583 19.8333 23.8425 20.6583 23.8425 21.6667L23.8333 38.1667L27.5 34.5H40.3333C41.3417 34.5 42.1667 33.675 42.1667 32.6667V21.6667C42.1667 20.6583 41.3417 19.8333 40.3333 19.8333H25.6667ZM27.5 29H38.5V30.8333H27.5V29ZM27.5 26.25H38.5V28.0833H27.5V26.25ZM27.5 23.5H38.5V25.3333H27.5V23.5Z" fill="white"/>
<defs>
<filter id="filter0_d_1_151" x="0" y="0" width="61" height="61" filterUnits="userSpaceOnUse" color-interpolation-filters="sRGB">
<feFlood flood-opacity="0" result="BackgroundImageFix"/>
<feColorMatrix in="SourceAlpha" type="matrix" values="0 0 0 0 0 0 0 0 0 0 0 0 0 0 0 0 0 0 127 0" result="hardAlpha"/>
<feOffset dx="-2" dy="2"/>
<feGaussianBlur stdDeviation="5"/>
<feComposite in2="hardAlpha" operator="out"/>
<feColorMatrix type="matrix" values="0 0 0 0 0 0 0 0 0 0 0 0 0 0 0 0 0 0 0.2 0"/>
<feBlend mode="normal" in2="BackgroundImageFix" result="effect1_dropShadow_1_151"/>
<feBlend mode="normal" in="SourceGraphic" in2="effect1_dropShadow_1_151" result="shape"/>
</filter>
</defs>
</svg>
