<svg width="17" height="17" viewBox="0 0 17 17" fill="none" xmlns="http://www.w3.org/2000/svg">
<path d="M3.56259 9.64453C4.36467 10.4466 5.33863 10.8477 6.48446 10.8477C7.63029 10.8477 8.60425 10.4466 9.40634 9.64453C10.2084 8.84245 10.6095 7.86849 10.6095 6.72266C10.6095 5.57682 10.2084 4.60286 9.40634 3.80078C8.60425 2.9987 7.63029 2.59766 6.48446 2.59766C5.33863 2.59766 4.36467 2.9987 3.56259 3.80078C2.7605 4.60286 2.35946 5.57682 2.35946 6.72266C2.35946 7.86849 2.7605 8.84245 3.56259 9.64453ZM11.9845 10.8477L16.5391 15.4023L15.1641 16.7773L10.6095 12.2227V11.4922L10.3516 11.2344C9.26311 12.1797 7.97404 12.6523 6.48446 12.6523C4.823 12.6523 3.40503 12.0794 2.23055 10.9336C1.08472 9.78776 0.511805 8.38411 0.511805 6.72266C0.511805 5.0612 1.08472 3.65755 2.23055 2.51172C3.40503 1.33724 4.823 0.75 6.48446 0.75C8.14592 0.75 9.54956 1.33724 10.6954 2.51172C11.8412 3.65755 12.4141 5.0612 12.4141 6.72266C12.4141 7.32422 12.2709 8.01172 11.9845 8.78516C11.698 9.52995 11.3686 10.1315 10.9962 10.5898L11.254 10.8477H11.9845Z" fill="black"/>
</svg>
