<svg width="62" height="62" viewBox="0 0 62 62" fill="none" xmlns="http://www.w3.org/2000/svg">
<g filter="url(#filter0_d_1_149)">
<path d="M8 18C8 12.4772 12.4772 8 18 8H40C45.5228 8 50 12.4772 50 18V40C50 45.5228 45.5228 50 40 50H18C12.4772 50 8 45.5228 8 40V18Z" fill="#0099FF"/>
</g>
<path d="M28 36C32.4183 36 36 32.4183 36 28C36 23.5817 32.4183 20 28 20C23.5817 20 20 23.5817 20 28C20 32.4183 23.5817 36 28 36Z" stroke="white" stroke-width="2" stroke-linecap="round" stroke-linejoin="round"/>
<path d="M39 38L35 34" stroke="white" stroke-width="2" stroke-linecap="round" stroke-linejoin="round"/>
<defs>
<filter id="filter0_d_1_149" x="0" y="0" width="62" height="62" filterUnits="userSpaceOnUse" color-interpolation-filters="sRGB">
<feFlood flood-opacity="0" result="BackgroundImageFix"/>
<feColorMatrix in="SourceAlpha" type="matrix" values="0 0 0 0 0 0 0 0 0 0 0 0 0 0 0 0 0 0 127 0" result="hardAlpha"/>
<feOffset dx="2" dy="2"/>
<feGaussianBlur stdDeviation="5"/>
<feComposite in2="hardAlpha" operator="out"/>
<feColorMatrix type="matrix" values="0 0 0 0 0 0 0 0 0 0 0 0 0 0 0 0 0 0 0.1 0"/>
<feBlend mode="normal" in2="BackgroundImageFix" result="effect1_dropShadow_1_149"/>
<feBlend mode="normal" in="SourceGraphic" in2="effect1_dropShadow_1_149" result="shape"/>
</filter>
</defs>
</svg>
