<svg width="64" height="64" viewBox="0 0 64 64" fill="none" xmlns="http://www.w3.org/2000/svg">
<g filter="url(#filter0_d_393_3)">
<rect x="8.77637" y="9.22604" width="42" height="42" rx="10" transform="rotate(-0.613437 8.77637 9.22604)" fill="#FFCC00"/>
</g>
<path d="M27.7472 32.3016C28.3841 32.925 29.1465 33.232 30.0345 33.2225C30.9225 33.213 31.6782 32.8897 32.3016 32.2528C32.925 31.6159 33.232 30.8535 33.2225 29.9655C33.213 29.0775 32.8897 28.3218 32.2528 27.6984C31.6159 27.075 30.8535 26.768 29.9655 26.7775C29.0775 26.787 28.3218 27.1102 27.6984 27.7472C27.075 28.3841 26.768 29.1465 26.7775 30.0345C26.787 30.9225 27.1102 31.6782 27.7472 32.3016ZM36.8413 30.8291L38.7909 32.3123C38.9929 32.4533 39.0237 32.6535 38.8833 32.9129L37.0697 36.1122C36.9573 36.3139 36.7717 36.3732 36.513 36.29L34.2262 35.4121C33.6292 35.8482 33.1168 36.1545 32.689 36.3309L32.3711 38.7407C32.3165 38.9992 32.1747 39.1296 31.9455 39.132L28.2504 39.1716C28.0213 39.1741 27.8767 39.0467 27.8166 38.7895L27.4471 36.3871C26.9004 36.1637 26.3816 35.8685 25.8907 35.5013L23.6231 36.428C23.3663 36.5167 23.1795 36.4614 23.0627 36.2621L21.1811 33.1024C21.0352 32.8461 21.0617 32.6453 21.2606 32.5L23.178 30.9754C23.1472 30.7752 23.1297 30.4746 23.1254 30.0736C23.1211 29.6726 23.1322 29.3717 23.1587 29.1709L21.2091 27.6877C21.0071 27.5467 20.9763 27.3465 21.1167 27.0871L22.9302 23.8878C23.0427 23.6861 23.2283 23.6268 23.487 23.71L25.7738 24.5879C26.3708 24.1518 26.8831 23.8455 27.311 23.6691L27.6289 21.2593C27.6835 21.0008 27.8253 20.8704 28.0545 20.868L31.7496 20.8284C31.9787 20.8259 32.1233 20.9533 32.1834 21.2105L32.5529 23.6129C33.0995 23.8363 33.6184 24.1315 34.1093 24.4987L36.3769 23.572C36.6337 23.4833 36.8205 23.5386 36.9373 23.7379L38.8188 26.8976C38.9648 27.1539 38.9383 27.3547 38.7394 27.5L36.822 29.0246C36.8528 29.2248 36.8703 29.5254 36.8746 29.9264C36.8789 30.3274 36.8678 30.6283 36.8413 30.8291Z" fill="black"/>
<defs>
<filter id="filter0_d_393_3" x="0.882843" y="0.882849" width="62.2343" height="62.2343" filterUnits="userSpaceOnUse" color-interpolation-filters="sRGB">
<feFlood flood-opacity="0" result="BackgroundImageFix"/>
<feColorMatrix in="SourceAlpha" type="matrix" values="0 0 0 0 0 0 0 0 0 0 0 0 0 0 0 0 0 0 127 0" result="hardAlpha"/>
<feOffset dx="2" dy="2"/>
<feGaussianBlur stdDeviation="5"/>
<feComposite in2="hardAlpha" operator="out"/>
<feColorMatrix type="matrix" values="0 0 0 0 0 0 0 0 0 0 0 0 0 0 0 0 0 0 0.1 0"/>
<feBlend mode="normal" in2="BackgroundImageFix" result="effect1_dropShadow_393_3"/>
<feBlend mode="normal" in="SourceGraphic" in2="effect1_dropShadow_393_3" result="shape"/>
</filter>
</defs>
</svg>
